<svg width="34" height="45" viewBox="0 0 34 45" fill="none" xmlns="http://www.w3.org/2000/svg">
<path d="M33 17.9347C33 21.2143 30.3217 23.8729 27.0179 23.8729C23.714 23.8729 21.0357 21.2143 21.0357 17.9347C21.0357 14.6552 23.714 11.9966 27.0179 11.9966C30.3217 11.9966 33 14.6552 33 17.9347Z" fill="#760090"/>
<path d="M21.5343 13.2337C21.5343 15.5567 19.6371 17.4399 17.2969 17.4399C14.9567 17.4399 13.0596 15.5567 13.0596 13.2337C13.0596 10.9107 14.9567 9.02749 17.2969 9.02749C19.6371 9.02749 21.5343 10.9107 21.5343 13.2337Z" fill="#760090"/>
<path d="M15.0536 4.07904C15.0536 4.89893 14.384 5.56358 13.5581 5.56358C12.7321 5.56358 12.0626 4.89893 12.0626 4.07904C12.0626 3.25915 12.7321 2.5945 13.5581 2.5945C14.384 2.5945 15.0536 3.25915 15.0536 4.07904Z" fill="#760090"/>
<path d="M13.0596 10.7595C13.0596 11.716 12.2784 12.4914 11.3148 12.4914C10.3512 12.4914 9.57001 11.716 9.57001 10.7595C9.57001 9.80292 10.3512 9.02749 11.3148 9.02749C12.2784 9.02749 13.0596 9.80292 13.0596 10.7595Z" fill="#760090"/>
<path d="M13.5581 18.1821C13.5581 19.1387 12.7769 19.9141 11.8133 19.9141C10.8497 19.9141 10.0685 19.1387 10.0685 18.1821C10.0685 17.2256 10.8497 16.4502 11.8133 16.4502C12.7769 16.4502 13.5581 17.2256 13.5581 18.1821Z" fill="#760090"/>
<path d="M17.5462 37.4811C17.5462 38.7109 16.5418 39.7079 15.3029 39.7079C14.0639 39.7079 13.0596 38.7109 13.0596 37.4811C13.0596 36.2513 14.0639 35.2543 15.3029 35.2543C16.5418 35.2543 17.5462 36.2513 17.5462 37.4811Z" fill="#760090"/>
<path d="M18.5432 41.6873C18.5432 42.7805 17.6504 43.6667 16.5492 43.6667C15.4479 43.6667 14.5551 42.7805 14.5551 41.6873C14.5551 40.5941 15.4479 39.7079 16.5492 39.7079C17.6504 39.7079 18.5432 40.5941 18.5432 41.6873Z" fill="#760090"/>
<path d="M21.5343 22.8832C21.5343 25.3428 19.5255 27.3368 17.0477 27.3368C14.5698 27.3368 12.5611 25.3428 12.5611 22.8832C12.5611 20.4235 14.5698 18.4296 17.0477 18.4296C19.5255 18.4296 21.5343 20.4235 21.5343 22.8832Z" fill="#760090"/>
<path d="M22.0328 31.543C22.0328 33.5927 20.3588 35.2543 18.2939 35.2543C16.229 35.2543 14.5551 33.5927 14.5551 31.543C14.5551 29.4932 16.229 27.8316 18.2939 27.8316C20.3588 27.8316 22.0328 29.4932 22.0328 31.543Z" fill="#760090"/>
<path d="M28.0149 27.3368C28.0149 29.2498 26.4526 30.8007 24.5253 30.8007C22.5981 30.8007 21.0357 29.2498 21.0357 27.3368C21.0357 25.4237 22.5981 23.8729 24.5253 23.8729C26.4526 23.8729 28.0149 25.4237 28.0149 27.3368Z" fill="#760090"/>
<path d="M5.08342 9.02749C6.59946 9.38158 9.0715 9.02749 9.0715 9.02749C9.0715 9.02749 9.56841 6.38811 9.0715 4.82131C8.81006 3.99695 8.70719 3.56661 8.07448 2.84192C7.44177 2.11724 6.8282 1.35739 5.83118 1.10997C4.83416 0.862543 1.09533 1.10997 1.09533 1.10997C1.09533 1.10997 0.880836 3.38766 1.09533 4.82131C1.16824 5.30865 1.17031 5.5971 1.34459 6.05842C1.59105 6.71082 1.86251 7.03373 2.34161 7.54295C2.76703 7.99513 3.58788 8.53265 3.58788 8.53265C3.58788 8.53265 4.48415 8.88752 5.08342 9.02749Z" fill="#00743A"/>
<path d="M9.0715 9.02749L9.14239 9.52244L9.49665 9.4717L9.56287 9.12L9.0715 9.02749ZM5.08342 9.02749L4.96969 9.51439L5.08342 9.02749ZM1.09533 4.82131L0.600835 4.89529L1.09533 4.82131ZM1.09533 1.10997L1.06231 0.611057L0.637454 0.639173L0.597533 1.06309L1.09533 1.10997ZM9.0715 4.82131L8.59489 4.97246L8.59489 4.97246L9.0715 4.82131ZM3.58788 8.53265L3.31397 8.95094L3.35652 8.97881L3.40381 8.99753L3.58788 8.53265ZM2.34161 7.54295L2.70577 7.20034L2.34161 7.54295ZM1.34459 6.05842L0.87685 6.23512L1.34459 6.05842ZM32.5 17.9347C32.5 20.9346 30.0491 23.3729 27.0179 23.3729V24.3729C30.5944 24.3729 33.5 21.4939 33.5 17.9347H32.5ZM27.0179 23.3729C23.9867 23.3729 21.5357 20.9346 21.5357 17.9347H20.5357C20.5357 21.4939 23.4414 24.3729 27.0179 24.3729V23.3729ZM21.5357 17.9347C21.5357 14.9348 23.9867 12.4966 27.0179 12.4966V11.4966C23.4414 11.4966 20.5357 14.3755 20.5357 17.9347H21.5357ZM27.0179 12.4966C30.0491 12.4966 32.5 14.9348 32.5 17.9347H33.5C33.5 14.3755 30.5944 11.4966 27.0179 11.4966V12.4966ZM21.0343 13.2337C21.0343 15.2771 19.3645 16.9399 17.2969 16.9399V17.9399C19.9098 17.9399 22.0343 15.8363 22.0343 13.2337H21.0343ZM17.2969 16.9399C15.2294 16.9399 13.5596 15.2771 13.5596 13.2337H12.5596C12.5596 15.8363 14.684 17.9399 17.2969 17.9399V16.9399ZM13.5596 13.2337C13.5596 11.1903 15.2294 9.52749 17.2969 9.52749V8.52749C14.684 8.52749 12.5596 10.6311 12.5596 13.2337H13.5596ZM17.2969 9.52749C19.3645 9.52749 21.0343 11.1903 21.0343 13.2337H22.0343C22.0343 10.6311 19.9098 8.52749 17.2969 8.52749V9.52749ZM14.5536 4.07904C14.5536 4.61931 14.1114 5.06358 13.5581 5.06358V6.06358C14.6567 6.06358 15.5536 5.17854 15.5536 4.07904H14.5536ZM13.5581 5.06358C13.0048 5.06358 12.5626 4.61931 12.5626 4.07904H11.5626C11.5626 5.17854 12.4595 6.06358 13.5581 6.06358V5.06358ZM12.5626 4.07904C12.5626 3.53877 13.0048 3.0945 13.5581 3.0945V2.0945C12.4595 2.0945 11.5626 2.97954 11.5626 4.07904H12.5626ZM13.5581 3.0945C14.1114 3.0945 14.5536 3.53877 14.5536 4.07904H15.5536C15.5536 2.97954 14.6567 2.0945 13.5581 2.0945V3.0945ZM12.5596 10.7595C12.5596 11.4364 12.0058 11.9914 11.3148 11.9914V12.9914C12.5511 12.9914 13.5596 11.9956 13.5596 10.7595H12.5596ZM11.3148 11.9914C10.6238 11.9914 10.07 11.4364 10.07 10.7595H9.07001C9.07001 11.9956 10.0785 12.9914 11.3148 12.9914V11.9914ZM10.07 10.7595C10.07 10.0825 10.6238 9.52749 11.3148 9.52749V8.52749C10.0785 8.52749 9.07001 9.5233 9.07001 10.7595H10.07ZM11.3148 9.52749C12.0058 9.52749 12.5596 10.0825 12.5596 10.7595H13.5596C13.5596 9.5233 12.5511 8.52749 11.3148 8.52749V9.52749ZM13.0581 18.1821C13.0581 18.8591 12.5043 19.4141 11.8133 19.4141V20.4141C13.0496 20.4141 14.0581 19.4183 14.0581 18.1821H13.0581ZM11.8133 19.4141C11.1223 19.4141 10.5685 18.8591 10.5685 18.1821H9.56852C9.56852 19.4183 10.577 20.4141 11.8133 20.4141V19.4141ZM10.5685 18.1821C10.5685 17.5052 11.1223 16.9502 11.8133 16.9502V15.9502C10.577 15.9502 9.56852 16.946 9.56852 18.1821H10.5685ZM11.8133 16.9502C12.5043 16.9502 13.0581 17.5052 13.0581 18.1821H14.0581C14.0581 16.946 13.0496 15.9502 11.8133 15.9502V16.9502ZM17.0462 37.4811C17.0462 38.4313 16.2692 39.2079 15.3029 39.2079V40.2079C16.8145 40.2079 18.0462 38.9905 18.0462 37.4811H17.0462ZM15.3029 39.2079C14.3366 39.2079 13.5596 38.4313 13.5596 37.4811H12.5596C12.5596 38.9905 13.7913 40.2079 15.3029 40.2079V39.2079ZM13.5596 37.4811C13.5596 36.5309 14.3366 35.7543 15.3029 35.7543V34.7543C13.7913 34.7543 12.5596 35.9717 12.5596 37.4811H13.5596ZM15.3029 35.7543C16.2692 35.7543 17.0462 36.5309 17.0462 37.4811H18.0462C18.0462 35.9717 16.8145 34.7543 15.3029 34.7543V35.7543ZM18.0432 41.6873C18.0432 42.5009 17.3778 43.1667 16.5492 43.1667V44.1667C17.9231 44.1667 19.0432 43.0601 19.0432 41.6873H18.0432ZM16.5492 43.1667C15.7205 43.1667 15.0551 42.5009 15.0551 41.6873H14.0551C14.0551 43.0601 15.1752 44.1667 16.5492 44.1667V43.1667ZM15.0551 41.6873C15.0551 40.8737 15.7205 40.2079 16.5492 40.2079V39.2079C15.1752 39.2079 14.0551 40.3145 14.0551 41.6873H15.0551ZM16.5492 40.2079C17.3778 40.2079 18.0432 40.8737 18.0432 41.6873H19.0432C19.0432 40.3145 17.9231 39.2079 16.5492 39.2079V40.2079ZM21.0343 22.8832C21.0343 25.0632 19.2529 26.8368 17.0477 26.8368V27.8368C19.7982 27.8368 22.0343 25.6224 22.0343 22.8832H21.0343ZM17.0477 26.8368C14.8424 26.8368 13.0611 25.0632 13.0611 22.8832H12.0611C12.0611 25.6224 14.2971 27.8368 17.0477 27.8368V26.8368ZM13.0611 22.8832C13.0611 20.7031 14.8424 18.9296 17.0477 18.9296V17.9296C14.2971 17.9296 12.0611 20.1439 12.0611 22.8832H13.0611ZM17.0477 18.9296C19.2529 18.9296 21.0343 20.7031 21.0343 22.8832H22.0343C22.0343 20.1439 19.7982 17.9296 17.0477 17.9296V18.9296ZM21.5328 31.543C21.5328 33.3131 20.0862 34.7543 18.2939 34.7543V35.7543C20.6315 35.7543 22.5328 33.8723 22.5328 31.543H21.5328ZM18.2939 34.7543C16.5017 34.7543 15.0551 33.3131 15.0551 31.543H14.0551C14.0551 33.8723 15.9564 35.7543 18.2939 35.7543V34.7543ZM15.0551 31.543C15.0551 29.7729 16.5017 28.3316 18.2939 28.3316V27.3316C15.9564 27.3316 14.0551 29.2136 14.0551 31.543H15.0551ZM18.2939 28.3316C20.0862 28.3316 21.5328 29.7729 21.5328 31.543H22.5328C22.5328 29.2136 20.6315 27.3316 18.2939 27.3316V28.3316ZM27.5149 27.3368C27.5149 28.9702 26.1799 30.3007 24.5253 30.3007V31.3007C26.7252 31.3007 28.5149 29.5295 28.5149 27.3368H27.5149ZM24.5253 30.3007C22.8707 30.3007 21.5357 28.9702 21.5357 27.3368H20.5357C20.5357 29.5295 22.3254 31.3007 24.5253 31.3007V30.3007ZM21.5357 27.3368C21.5357 25.7033 22.8707 24.3729 24.5253 24.3729V23.3729C22.3254 23.3729 20.5357 25.1441 20.5357 27.3368H21.5357ZM24.5253 24.3729C26.1799 24.3729 27.5149 25.7033 27.5149 27.3368H28.5149C28.5149 25.1441 26.7252 23.3729 24.5253 23.3729V24.3729ZM9.0715 9.02749C9.0006 8.53254 9.00065 8.53254 9.00068 8.53253C9.00068 8.53253 9.00071 8.53253 9.00071 8.53253C9.00071 8.53253 9.00067 8.53253 9.00059 8.53254C9.00044 8.53257 9.00014 8.53261 8.99969 8.53267C8.9988 8.5328 8.99731 8.53301 8.99526 8.53329C8.99114 8.53387 8.98474 8.53475 8.97614 8.53592C8.95894 8.53825 8.93299 8.54171 8.89912 8.54602C8.83135 8.55466 8.73201 8.56673 8.60772 8.58019C8.35885 8.60714 8.01154 8.63949 7.61861 8.66102C6.81893 8.70486 5.88188 8.70053 5.19714 8.54059L4.96969 9.51439C5.80099 9.70855 6.85798 9.70422 7.67334 9.65953C8.08792 9.6368 8.45337 9.60275 8.71539 9.57438C8.84655 9.56017 8.95217 9.54735 9.02552 9.538C9.0622 9.53333 9.09084 9.52952 9.1106 9.52684C9.12047 9.5255 9.12813 9.52444 9.13347 9.5237C9.13613 9.52332 9.13822 9.52303 9.13971 9.52282C9.14046 9.52271 9.14106 9.52263 9.1415 9.52257C9.14173 9.52253 9.14191 9.52251 9.14206 9.52249C9.14214 9.52248 9.14222 9.52246 9.14226 9.52246C9.14233 9.52245 9.14239 9.52244 9.0715 9.02749ZM1.58983 4.74732C1.48976 4.07848 1.48796 3.18907 1.51458 2.44591C1.52773 2.07873 1.54747 1.75521 1.56391 1.52368C1.57213 1.40801 1.5795 1.31553 1.58479 1.25233C1.58744 1.22074 1.58956 1.19647 1.591 1.1803C1.59172 1.17221 1.59227 1.16615 1.59263 1.16221C1.59281 1.16024 1.59295 1.1588 1.59303 1.1579C1.59307 1.15745 1.5931 1.15714 1.59312 1.15696C1.59313 1.15687 1.59313 1.15682 1.59313 1.1568C1.59313 1.15679 1.59313 1.1568 1.59313 1.1568C1.59313 1.15682 1.59313 1.15684 1.09533 1.10997C0.597533 1.06309 0.597529 1.06313 0.597524 1.06319C0.597521 1.06322 0.597515 1.06328 0.59751 1.06334C0.597498 1.06346 0.597484 1.06361 0.597466 1.0638C0.597431 1.06418 0.597383 1.06469 0.597323 1.06534C0.597202 1.06664 0.597031 1.06849 0.596812 1.07087C0.596375 1.07564 0.595748 1.08254 0.59495 1.09149C0.593355 1.10938 0.591077 1.13545 0.588275 1.16894C0.582672 1.2359 0.574966 1.33257 0.566424 1.45283C0.549354 1.69317 0.528877 2.02868 0.515216 2.41012C0.488208 3.16423 0.486409 4.13049 0.600835 4.89529L1.58983 4.74732ZM1.09533 1.10997C1.12835 1.60887 1.12834 1.60887 1.12835 1.60887C1.12837 1.60887 1.12839 1.60887 1.12844 1.60887C1.12852 1.60886 1.12867 1.60885 1.12886 1.60884C1.12926 1.60881 1.12989 1.60877 1.13073 1.60872C1.13242 1.60861 1.135 1.60844 1.13843 1.60822C1.14531 1.60777 1.15563 1.60711 1.1692 1.60625C1.19635 1.60452 1.23648 1.60202 1.28803 1.59891C1.39113 1.59269 1.53982 1.58407 1.72146 1.57448C2.085 1.55528 2.57939 1.53228 3.10396 1.51697C3.62949 1.50163 4.18052 1.49414 4.65877 1.50544C5.15211 1.5171 5.52152 1.54829 5.71075 1.59525L5.95161 0.624685C5.64233 0.547934 5.1705 0.51726 4.6824 0.505724C4.17921 0.493831 3.60859 0.50181 3.07478 0.517395C2.54003 0.533008 2.03739 0.556402 1.66874 0.575867C1.48429 0.585606 1.33309 0.594377 1.22784 0.600724C1.1752 0.603898 1.13403 0.606467 1.10592 0.608249C1.09187 0.609141 1.08107 0.609835 1.07374 0.610311C1.07007 0.610549 1.06727 0.610731 1.06536 0.610857C1.0644 0.610919 1.06367 0.610968 1.06316 0.611001C1.06291 0.611018 1.06271 0.611031 1.06257 0.61104C1.0625 0.611045 1.06243 0.611049 1.0624 0.611051C1.06235 0.611055 1.06231 0.611057 1.09533 1.10997ZM8.59489 4.97246C8.81275 5.65938 8.82057 6.62958 8.75915 7.47575C8.72912 7.88941 8.68401 8.25647 8.6464 8.51994C8.62762 8.65147 8.61078 8.75666 8.59877 8.82832C8.59276 8.86414 8.58796 8.89154 8.58473 8.90962C8.58312 8.91867 8.5819 8.92538 8.58112 8.92964C8.58073 8.93177 8.58045 8.93329 8.58028 8.93419C8.5802 8.93464 8.58014 8.93493 8.58012 8.93506C8.5801 8.93513 8.5801 8.93515 8.5801 8.93514C8.5801 8.93513 8.58011 8.93509 8.58011 8.93509C8.58012 8.93504 8.58013 8.93498 9.0715 9.02749C9.56287 9.12 9.56288 9.11992 9.5629 9.11983C9.56291 9.11979 9.56293 9.11969 9.56294 9.1196C9.56297 9.11943 9.56301 9.11921 9.56306 9.11896C9.56316 9.11845 9.56328 9.11778 9.56344 9.11695C9.56374 9.1153 9.56417 9.11301 9.5647 9.1101C9.56577 9.10428 9.56728 9.09598 9.56918 9.08531C9.57299 9.06397 9.57838 9.03313 9.58499 8.99372C9.59821 8.91492 9.61631 8.80166 9.63636 8.66127C9.67638 8.3809 9.72444 7.99019 9.75653 7.54815C9.81933 6.68293 9.82716 5.55005 9.5481 4.67015L8.59489 4.97246ZM5.71075 1.59525C6.52494 1.7973 7.03429 2.41078 7.69783 3.17077L8.45112 2.51308C7.84924 1.8237 7.13146 0.91748 5.95161 0.624685L5.71075 1.59525ZM7.69783 3.17077C8.25532 3.80929 8.33339 4.14791 8.59489 4.97246L9.5481 4.67015C9.28673 3.846 9.15906 3.32393 8.45112 2.51308L7.69783 3.17077ZM5.19714 8.54059C4.92611 8.47729 4.57404 8.3615 4.27831 8.25643C4.13293 8.20478 4.00561 8.15733 3.91476 8.12284C3.86939 8.10561 3.83325 8.09167 3.80865 8.08211C3.79636 8.07733 3.78696 8.07366 3.78074 8.07122C3.77763 8.07 3.77532 8.06909 3.77385 8.06851C3.77311 8.06822 3.77258 8.06801 3.77226 8.06788C3.7721 8.06782 3.772 8.06778 3.77195 8.06776C3.77192 8.06775 3.77191 8.06774 3.77191 8.06774C3.77191 8.06774 3.77192 8.06775 3.77192 8.06775C3.77194 8.06775 3.77196 8.06776 3.58788 8.53265C3.40381 8.99753 3.40384 8.99754 3.40386 8.99755C3.40388 8.99756 3.40391 8.99757 3.40394 8.99758C3.40399 8.9976 3.40406 8.99763 3.40415 8.99766C3.40431 8.99773 3.40453 8.99782 3.40481 8.99792C3.40536 8.99814 3.40612 8.99844 3.4071 8.99883C3.40905 8.9996 3.41184 9.0007 3.41545 9.00211C3.42266 9.00494 3.4331 9.00902 3.44648 9.01422C3.47324 9.02462 3.5118 9.0395 3.55981 9.05773C3.65574 9.09415 3.78995 9.14416 3.94354 9.19873C4.24575 9.3061 4.64145 9.43772 4.96969 9.51439L5.19714 8.54059ZM3.58788 8.53265C3.8618 8.11435 3.86182 8.11437 3.86185 8.11438C3.86185 8.11439 3.86187 8.1144 3.86188 8.1144C3.86189 8.11441 3.8619 8.11442 3.86189 8.11441C3.86187 8.1144 3.8618 8.11435 3.86169 8.11428C3.86146 8.11413 3.86103 8.11385 3.86042 8.11344C3.85919 8.11263 3.8572 8.11132 3.85449 8.10953C3.84908 8.10595 3.84079 8.10044 3.82992 8.09316C3.80816 8.0786 3.77613 8.05699 3.73618 8.02953C3.65611 7.9745 3.545 7.89654 3.42139 7.80521C3.16726 7.61746 2.88608 7.39199 2.70577 7.20034L1.97745 7.88557C2.22256 8.14609 2.56451 8.41546 2.82717 8.60951C2.96195 8.70909 3.08264 8.79377 3.16978 8.85366C3.21342 8.88365 3.24885 8.90757 3.27365 8.92417C3.28605 8.93247 3.29581 8.93895 3.30263 8.94347C3.30604 8.94572 3.30871 8.94749 3.31062 8.94874C3.31157 8.94936 3.31232 8.94986 3.31289 8.95023C3.31317 8.95041 3.3134 8.95057 3.31358 8.95068C3.31367 8.95074 3.31375 8.9508 3.31381 8.95084C3.31385 8.95086 3.31388 8.95089 3.3139 8.9509C3.31394 8.95092 3.31397 8.95094 3.58788 8.53265ZM2.70577 7.20034C2.24331 6.70879 2.02433 6.44292 1.81232 5.88172L0.87685 6.23512C1.15777 6.97873 1.48171 7.35866 1.97745 7.88557L2.70577 7.20034ZM1.81232 5.88172C1.66295 5.48633 1.67046 5.28625 1.58983 4.74732L0.600835 4.89529C0.666031 5.33105 0.677667 5.70787 0.87685 6.23512L1.81232 5.88172Z" fill="#00743A"/>
</svg>
