<svg xmlns="http://www.w3.org/2000/svg" width="160" height="73" fill="none" xmlns:v="https://vecta.io/nano"><path d="M108.432 25.085c0 4.858-3.871 8.796-8.646 8.796s-8.647-3.938-8.647-8.796 3.871-8.796 8.647-8.796 8.646 3.938 8.646 8.796zm-16.573-6.964c0 3.441-2.742 6.23-6.125 6.23s-6.125-2.789-6.125-6.23 2.742-6.23 6.125-6.23 6.125 2.789 6.125 6.23zm-9.367-13.56c0 1.214-.968 2.199-2.162 2.199s-2.162-.985-2.162-2.199.968-2.199 2.162-2.199 2.162.985 2.162 2.199zm-2.882 9.895c0 1.417-1.129 2.565-2.522 2.565s-2.522-1.149-2.522-2.565 1.129-2.565 2.522-2.565 2.522 1.149 2.522 2.566zm.72 10.995c0 1.417-1.129 2.566-2.522 2.566s-2.522-1.149-2.522-2.565 1.129-2.565 2.522-2.565 2.522 1.149 2.522 2.566zm5.765 28.587c0 1.822-1.452 3.298-3.243 3.298s-3.242-1.477-3.242-3.298 1.452-3.298 3.242-3.298 3.243 1.477 3.243 3.298zm1.441 6.23c0 1.619-1.29 2.932-2.882 2.932s-2.882-1.313-2.882-2.932 1.29-2.932 2.882-2.932 2.882 1.313 2.882 2.932zm4.323-27.854c0 3.643-2.903 6.597-6.485 6.597s-6.485-2.953-6.485-6.597 2.903-6.597 6.485-6.597 6.485 2.954 6.485 6.597zm.721 12.828c0 3.036-2.42 5.497-5.404 5.497s-5.404-2.461-5.404-5.497 2.419-5.497 5.404-5.497 5.404 2.461 5.404 5.497zm8.647-6.231c0 2.834-2.258 5.131-5.044 5.131s-5.044-2.297-5.044-5.131 2.258-5.131 5.044-5.131 5.044 2.297 5.044 5.131z" fill="#760090"/><path d="M68.081 11.891c2.191.524 5.765 0 5.765 0s.718-3.91 0-6.23c-.378-1.221-.527-1.859-1.441-2.932S70.603.529 69.162.163s-6.845 0-6.845 0-.31 3.374 0 5.497c.105.722.108 1.149.36 1.832.356.966.749 1.445 1.441 2.199.615.67 1.801 1.466 1.801 1.466s1.296.526 2.162.733z" fill="#00743a"/><path d="M8.052 53.473h1.173l7.998 19.256h-1.44l-2.639-6.346H4.106l-2.639 6.346H0l8.052-19.256zm4.719 11.77L8.638 55.155 4.426 65.244h8.345zm27.295 7.486h-1.333v-7.865c0-1.79-.275-3.11-.826-3.96-.533-.85-1.36-1.275-2.479-1.275-1.138 0-2.151.416-3.039 1.248-.871.814-1.484 1.862-1.84 3.146v8.706h-1.333v-7.865c0-1.808-.267-3.128-.8-3.96-.533-.85-1.36-1.275-2.479-1.275-1.138 0-2.151.407-3.039 1.221-.871.795-1.493 1.844-1.866 3.146v8.733h-1.333V58.626h1.253v3.363c.587-1.157 1.342-2.043 2.266-2.658.924-.633 1.937-.949 3.039-.949 1.155 0 2.097.353 2.826 1.058.746.687 1.191 1.609 1.333 2.766.658-1.266 1.44-2.215 2.346-2.848.906-.651 1.937-.976 3.093-.976.764 0 1.404.145 1.92.434.533.271.969.678 1.306 1.221.355.524.604 1.175.747 1.953.16.778.24 1.654.24 2.631v8.109zm9.839.271c-.977 0-1.884-.19-2.719-.57a6.58 6.58 0 0 1-2.133-1.573 7.68 7.68 0 0 1-1.413-2.359 7.77 7.77 0 0 1-.507-2.793 7.63 7.63 0 0 1 .507-2.794c.338-.886.809-1.663 1.413-2.332a6.68 6.68 0 0 1 2.16-1.6 6.18 6.18 0 0 1 2.693-.597c.96 0 1.849.199 2.666.597.818.38 1.538.913 2.16 1.6a7.1 7.1 0 0 1 1.44 2.332 7.63 7.63 0 0 1 .507 2.794 7.77 7.77 0 0 1-.507 2.793 7.42 7.42 0 0 1-1.44 2.359 6.5 6.5 0 0 1-2.16 1.573c-.818.38-1.706.57-2.666.57zm-5.439-7.241c0 1.103.24 2.115.72 3.038.498.904 1.155 1.627 1.973 2.17a4.81 4.81 0 0 0 2.719.814c.995 0 1.902-.271 2.719-.814a5.92 5.92 0 0 0 1.973-2.224 6.45 6.45 0 0 0 .746-3.065c0-1.103-.249-2.115-.746-3.038-.48-.922-1.138-1.654-1.973-2.197a4.66 4.66 0 0 0-2.693-.841c-.995 0-1.902.28-2.719.841s-1.475 1.302-1.973 2.224-.746 1.953-.746 3.092zm21.964-5.912c-1.244.036-2.337.416-3.279 1.139-.924.705-1.573 1.681-1.946 2.929v8.814h-1.333V58.626h1.28v3.471c.48-.994 1.12-1.799 1.92-2.414.8-.633 1.644-.994 2.533-1.085l.48-.027h.346v1.275zm1.277 8.814c0-.85.249-1.582.746-2.197.498-.633 1.182-1.121 2.053-1.465.871-.362 1.875-.542 3.013-.542a13.54 13.54 0 0 1 2.213.19 11.79 11.79 0 0 1 2.053.515v-1.329c0-1.302-.373-2.341-1.12-3.119-.729-.777-1.742-1.166-3.039-1.166-.693 0-1.413.145-2.159.434s-1.511.705-2.293 1.248l-.56-.976c.906-.615 1.777-1.076 2.613-1.383.853-.325 1.698-.488 2.533-.488 1.653 0 2.959.497 3.919 1.492s1.44 2.35 1.44 4.068v6.997c0 .217.044.38.133.488.107.108.258.172.453.19v1.112l-.4.027h-.267c-.338-.054-.604-.199-.8-.434-.178-.235-.276-.497-.293-.787v-1.112c-.64.814-1.466 1.447-2.48 1.898a7.52 7.52 0 0 1-3.146.678c-.871 0-1.662-.19-2.373-.57a4.43 4.43 0 0 1-1.653-1.546c-.391-.669-.587-1.41-.587-2.224zm9.545 1.166c.178-.235.311-.461.4-.678s.133-.416.133-.597V66.22a10.64 10.64 0 0 0-1.999-.57 11.86 11.86 0 0 0-2.133-.19c-1.386 0-2.515.28-3.386.841-.853.561-1.28 1.32-1.28 2.278a3.17 3.17 0 0 0 .453 1.654c.302.506.72.913 1.253 1.22.551.307 1.182.461 1.893.461.995 0 1.911-.19 2.746-.57.853-.398 1.493-.904 1.92-1.519z" fill="#760090"/><path d="M90.421 72.729V53.473h1.36v18.008h11.304v1.248H90.421zm13.945-4.068c0-.85.249-1.582.746-2.197.498-.633 1.182-1.121 2.053-1.465.871-.362 1.876-.542 3.013-.542a13.54 13.54 0 0 1 2.213.19c.764.126 1.449.298 2.053.515v-1.329c0-1.302-.373-2.341-1.12-3.119-.729-.777-1.742-1.166-3.039-1.166-.693 0-1.413.145-2.16.434s-1.511.705-2.293 1.248l-.56-.976c.907-.615 1.778-1.076 2.613-1.383a7.07 7.07 0 0 1 2.533-.488c1.653 0 2.959.497 3.919 1.492s1.44 2.35 1.44 4.068v6.997c0 .217.044.38.133.488.107.108.258.172.453.19v1.112l-.399.027h-.267c-.338-.054-.604-.199-.8-.434a1.42 1.42 0 0 1-.293-.787v-1.112c-.64.814-1.467 1.447-2.48 1.898a7.52 7.52 0 0 1-3.146.678c-.871 0-1.662-.19-2.373-.57a4.42 4.42 0 0 1-1.652-1.546c-.392-.669-.587-1.41-.587-2.224zm9.545 1.166c.177-.235.311-.461.4-.678s.133-.416.133-.597V66.22a10.61 10.61 0 0 0-2-.57 11.81 11.81 0 0 0-2.133-.19c-1.386 0-2.515.28-3.386.841-.853.561-1.279 1.32-1.279 2.278a3.17 3.17 0 0 0 .453 1.654c.302.506.72.913 1.253 1.22.551.307 1.182.461 1.893.461.995 0 1.911-.19 2.746-.57.853-.398 1.493-.904 1.92-1.519zm12.002 2.224c-.088.036-.266.127-.533.271s-.604.28-1.013.407a5.3 5.3 0 0 1-1.36.163c-.479 0-.933-.09-1.359-.271a2.43 2.43 0 0 1-.987-.868c-.249-.38-.373-.841-.373-1.383V59.738h-1.946v-1.112h1.946v-4.828h1.333v4.828h3.226v1.112h-3.226v10.306c.036.524.222.922.56 1.193.338.253.729.38 1.173.38.551 0 1.031-.09 1.44-.271l.72-.38.399 1.085zm2.355.678V58.626h1.333v14.103h-1.333zm0-17.303v-2.495h1.333v2.495h-1.333zm16.851 17.303h-1.333v-7.865c0-1.808-.258-3.128-.774-3.96-.497-.85-1.297-1.275-2.399-1.275-.782 0-1.555.19-2.32.57-.746.38-1.404.904-1.973 1.573-.551.651-.95 1.392-1.199 2.224v8.733h-1.333V58.626h1.253v3.363a6.05 6.05 0 0 1 1.493-1.871 7.27 7.27 0 0 1 2.079-1.275 6.31 6.31 0 0 1 2.373-.461c.764 0 1.404.145 1.92.434.533.271.96.669 1.279 1.193.338.524.578 1.175.72 1.953s.214 1.663.214 2.658v8.109zm2.884-4.068c0-.85.248-1.582.746-2.197.498-.633 1.182-1.121 2.053-1.465.871-.362 1.875-.542 3.013-.542.711 0 1.448.063 2.212.19s1.449.298 2.053.515v-1.329c0-1.302-.373-2.341-1.119-3.119-.729-.777-1.742-1.166-3.04-1.166-.693 0-1.413.145-2.159.434s-1.511.705-2.293 1.248l-.56-.976c.906-.615 1.777-1.076 2.613-1.383.853-.325 1.697-.488 2.533-.488 1.653 0 2.959.497 3.919 1.492s1.439 2.35 1.439 4.068v6.997c0 .217.045.38.134.488.106.108.257.172.453.19v1.112l-.4.027h-.267c-.337-.054-.604-.199-.799-.434-.178-.235-.276-.497-.294-.787v-1.112c-.64.814-1.466 1.447-2.479 1.898a7.52 7.52 0 0 1-3.146.678c-.871 0-1.662-.19-2.373-.57a4.43 4.43 0 0 1-1.653-1.546c-.391-.669-.586-1.41-.586-2.224zm9.544 1.166c.178-.235.311-.461.4-.678s.133-.416.133-.597V66.22a10.58 10.58 0 0 0-1.999-.57 11.81 11.81 0 0 0-2.133-.19c-1.386 0-2.515.28-3.386.841-.853.561-1.28 1.32-1.28 2.278a3.16 3.16 0 0 0 .454 1.654c.303.506.719.913 1.253 1.22.551.307 1.182.461 1.893.461.995 0 1.91-.19 2.746-.57.853-.398 1.493-.904 1.919-1.519z" fill="#00743a"/></svg>